<?xml version="1.0" standalone="no"?>
<svg viewBox="0 0 200 200" xmlns="http://www.w3.org/2000/svg">
  <path fill="#08BDBA" d="M43.7,-63C56.7,-59.6,67.3,-47.6,61.2,-35.4C55,-23.3,32.1,-11,24,-0.8C15.9,9.3,22.5,17.3,21.8,19.9C21.1,22.4,13,19.6,6.5,20.9C0,22.2,-4.9,27.7,-9.1,27.9C-13.4,28.1,-17,23,-15.9,17.6C-14.8,12.1,-8.9,6.3,-19.7,-3.2C-30.5,-12.7,-58,-25.9,-65.9,-39.1C-73.9,-52.3,-62.3,-65.6,-48,-68.4C-33.8,-71.1,-16.9,-63.4,-0.8,-62.2C15.3,-61,30.7,-66.3,43.7,-63Z" transform="translate(100 100)" />
</svg>
